<?xml version="1.0" standalone="no"?>
<!DOCTYPE svg PUBLIC "-//W3C//DTD SVG 20010904//EN"
 "http://www.w3.org/TR/2001/REC-SVG-20010904/DTD/svg10.dtd">
<svg version="1.0" xmlns="http://www.w3.org/2000/svg"
 width="431.000000pt" height="322.000000pt" viewBox="0 0 431.000000 322.000000"
 preserveAspectRatio="xMidYMid meet">

<g transform="translate(0.000000,322.000000) scale(0.100000,-0.100000)"
fill="#000000" stroke="none">
<path d="M2 1608 c2 -887 4 -1431 5 -1208 l3 405 2143 -2 2142 -3 5 -402 c3
-222 6 323 8 1210 l2 1612 -2155 0 -2155 0 2 -1612z m3401 1420 c128 -35 205
-78 272 -149 74 -80 97 -144 103 -280 9 -216 -61 -334 -250 -418 -35 -15 -76
-32 -93 -36 -28 -6 -23 -9 56 -36 201 -67 311 -172 354 -334 19 -73 20 -242 1
-310 -56 -212 -213 -318 -533 -360 -84 -11 -251 -15 -756 -15 l-648 0 3 113 3
112 127 5 c116 5 130 7 150 28 l23 23 3 667 c2 367 0 685 -3 707 -11 75 -19
79 -168 85 l-132 5 -3 113 -3 113 698 -3 698 -4 98 -26z m-2015 -118 c225 -46
393 -180 492 -393 145 -311 126 -817 -41 -1101 -62 -105 -193 -231 -297 -284
-131 -69 -247 -94 -422 -94 -229 0 -364 46 -487 168 -73 72 -99 140 -90 232
14 139 154 225 311 192 79 -16 141 -75 152 -145 12 -81 -24 -159 -86 -185 -16
-7 -30 -16 -30 -21 0 -4 21 -18 48 -31 40 -19 63 -23 162 -23 104 0 121 3 171
26 152 71 234 247 254 543 l7 100 -23 -17 c-58 -41 -169 -99 -229 -118 -90
-30 -268 -37 -373 -15 -207 43 -377 188 -445 380 -21 58 -25 90 -25 176 0 124
12 180 58 275 81 167 273 298 500 340 108 20 284 18 393 -5z"/>
<path d="M2642 2528 l3 -303 203 2 c243 1 322 15 407 71 80 53 108 113 108
231 0 146 -48 224 -170 272 -54 21 -76 23 -306 27 l-247 4 2 -304z"/>
<path d="M2640 1666 c0 -178 3 -331 6 -340 5 -14 32 -16 199 -16 363 0 481 37
553 174 25 47 27 60 27 171 0 106 -3 125 -23 165 -33 63 -66 95 -124 120 -94
41 -170 50 -410 50 l-228 0 0 -324z"/>
<path d="M1101 2700 c-102 -22 -174 -94 -208 -209 -23 -80 -14 -258 16 -326
50 -112 151 -175 286 -178 175 -2 280 95 306 283 20 142 -27 312 -103 371 -71
55 -197 80 -297 59z"/>
<path d="M236 637 c-8 -33 -86 -404 -93 -445 l-6 -32 51 0 50 0 10 48 c6 26
21 95 33 155 12 59 26 104 29 100 4 -5 33 -74 65 -155 l59 -148 51 0 52 0 11
53 c34 157 92 437 92 442 0 3 -22 5 -50 5 -49 0 -49 0 -58 -37 -21 -84 -52
-239 -52 -255 0 -42 -19 -8 -75 135 l-61 152 -51 3 c-46 3 -51 1 -57 -21z"/>
<path d="M761 548 c-13 -62 -37 -171 -52 -243 -16 -72 -29 -133 -29 -137 0 -5
25 -8 55 -8 49 0 55 2 59 23 3 12 14 65 25 117 42 195 71 341 71 350 0 6 -24
10 -53 10 l-53 0 -23 -112z"/>
<path d="M1025 618 c-4 -24 -11 -59 -16 -78 -9 -35 -79 -369 -79 -377 0 -2 24
-3 52 -1 l53 3 28 140 c15 77 31 143 36 148 4 4 34 -59 67 -140 l59 -148 52
-3 c58 -3 51 -12 74 93 42 198 79 380 79 392 0 9 -15 13 -50 13 -27 0 -50 -2
-50 -5 0 -15 -61 -299 -65 -303 -2 -3 -8 4 -11 14 -4 10 -28 71 -54 134 -26
63 -51 125 -54 138 -6 19 -14 22 -61 22 l-53 0 -7 -42z"/>
<path d="M1580 655 c0 -6 -78 -380 -90 -432 -6 -23 -10 -47 -10 -52 0 -13 386
-16 393 -3 2 4 7 24 11 45 l7 37 -145 0 -144 0 8 33 c4 17 11 44 14 60 l6 27
129 0 c142 0 140 -1 141 73 l0 27 -124 0 -123 0 8 43 c4 23 8 45 9 50 0 4 60
7 133 7 l134 0 10 45 10 45 -188 0 c-104 0 -189 -2 -189 -5z"/>
<path d="M2090 652 c0 -4 -22 -115 -50 -247 -27 -132 -50 -241 -50 -242 0 -2
73 -3 163 -3 149 0 167 2 207 22 86 44 114 152 55 211 l-25 25 35 35 c30 30
35 42 35 80 0 56 -34 102 -88 117 -43 12 -282 14 -282 2z m241 -92 c19 -11 25
-45 11 -67 -13 -20 -61 -33 -124 -33 -51 0 -59 2 -54 16 3 9 9 33 12 55 l7 39
64 0 c35 0 73 -5 84 -10z m-10 -219 c24 -30 24 -34 -3 -65 -21 -23 -32 -26
-110 -28 -98 -4 -94 -8 -76 72 l12 52 79 -4 c68 -3 81 -6 98 -27z"/>
<path d="M2715 538 c-38 -68 -97 -172 -131 -233 -88 -154 -87 -145 -22 -145
l54 0 30 52 30 53 94 0 95 0 9 -53 9 -52 48 0 c60 0 58 -16 20 223 -16 100
-33 203 -36 230 l-7 47 -62 0 -62 0 -69 -122z m130 -124 l6 -54 -60 0 c-34 0
-61 2 -61 4 0 2 21 41 47 87 l47 84 7 -34 c4 -19 10 -58 14 -87z"/>
<path d="M3191 623 c-14 -53 -81 -380 -88 -425 l-6 -38 50 0 50 0 22 113 c13
61 28 132 34 156 l12 44 24 -59 c13 -32 42 -103 64 -157 l39 -97 52 0 52 0 17
83 c30 153 78 382 83 400 5 15 -2 17 -45 17 -27 0 -52 -3 -54 -7 -3 -5 -17
-71 -33 -148 -15 -77 -30 -143 -34 -147 -3 -5 -34 62 -69 147 l-63 155 -49 0
c-47 0 -48 -1 -58 -37z"/>
<path d="M3727 578 c-19 -100 -73 -355 -83 -392 -6 -26 -6 -26 49 -26 62 0 57
-6 78 93 11 50 19 64 58 98 l45 40 58 -115 58 -116 60 0 c33 0 60 3 60 6 0 4
-34 69 -75 145 -41 76 -75 143 -75 147 0 5 50 52 111 105 l110 97 -74 0 -74 0
-104 -95 c-57 -53 -105 -91 -107 -85 -2 5 3 41 12 79 24 103 24 101 -37 101
l-53 0 -17 -82z"/>
</g>
</svg>
