<?xml version="1.0" ?><svg style="enable-background:new 0 0 512 512;" version="1.1" viewBox="0 0 512 512" xml:space="preserve" xmlns="http://www.w3.org/2000/svg" xmlns:xlink="http://www.w3.org/1999/xlink"><g id="_x32_1_x2C__Location_x2C__map_x2C__pin_x2C__mark_x2C__navigation"><g><path d="M290.61,375.83c81.2,4.67,142.41,25.54,142.41,50.57c0,28.45-79.23,51.54-177.02,51.54    c-97.76,0-177.02-23.09-177.02-51.54c0-24.74,59.8-45.39,139.57-50.41c14.51,23.1,27.37,43.69,35.88,59.03    C263.23,419.14,276.15,398.61,290.61,375.83z" style="fill:#BDC3C7;"/><path d="M254.43,34.06c76.61,0,138.72,62.11,138.72,138.74c0,43.25-58.45,133.59-102.54,203.03    c-14.46,22.78-27.38,43.31-36.18,59.19c-8.51-15.34-21.37-35.93-35.88-59.03C174.69,306.2,115.69,213.42,115.69,172.8    C115.69,96.17,177.8,34.06,254.43,34.06z M316.41,167.57c0-34.16-27.84-62.01-61.98-62.01c-34.16,0-62,27.85-62,62.01    c0,34.14,27.84,61.98,62,61.98C288.57,229.55,316.41,201.71,316.41,167.57z" style="fill:#E74C3C;"/><path d="M256,487.94c-48.195,0-93.641-5.505-127.966-15.5C89.4,461.189,68.98,445.269,68.98,426.4    c0-37.657,80.234-56.067,148.942-60.391c5.499-0.356,10.262,3.84,10.608,9.353c0.347,5.512-3.84,10.262-9.353,10.608    c-38.04,2.394-72.477,8.52-96.969,17.249C97.683,411.961,88.98,421.17,88.98,426.4c0,5.139,9.403,16.574,44.646,26.837    c32.558,9.481,76.018,14.703,122.374,14.703c46.367,0,89.831-5.222,122.385-14.703c35.234-10.262,44.635-21.697,44.635-26.837    c0-13.463-47.356-35.662-132.984-40.587c-5.514-0.317-9.727-5.044-9.409-10.558c0.317-5.514,5.03-9.744,10.558-9.409    c70.043,4.028,151.836,22.304,151.836,60.554c0,18.87-20.417,34.79-59.042,46.04C349.657,482.435,304.207,487.94,256,487.94z"/><path d="M254.43,445.019c-3.634,0-6.981-1.971-8.745-5.148c-8.264-14.896-21.014-35.335-35.604-58.562l0.001,0.002l-3.384-5.384    C161.697,304.348,105.69,215.266,105.69,172.8c0-82.016,66.725-148.74,148.74-148.74c82.004,0,148.72,66.724,148.72,148.74    c0,44.584-52.718,127.539-99.231,200.729l-4.867,7.661c-14.474,22.802-27.164,42.956-35.875,58.676    c-1.762,3.18-5.109,5.152-8.744,5.153C254.432,445.019,254.431,445.019,254.43,445.019z M254.43,44.06    c-70.988,0-128.74,57.752-128.74,128.74c0,36.702,56.607,126.74,97.94,192.483l3.386,5.386c0,0.001,0.001,0.002,0.001,0.002    c10.663,16.975,19.905,31.758,27.414,44.363c7.845-13.144,17.339-28.185,27.735-44.563l4.872-7.669    C327.6,298.977,383.15,211.566,383.15,172.8C383.15,101.812,325.406,44.06,254.43,44.06z"/><path d="M254.43,239.55c-39.701,0-72-32.29-72-71.98c0-39.707,32.299-72.01,72-72.01c39.69,0,71.98,32.303,71.98,72.01    C326.41,207.26,294.12,239.55,254.43,239.55z M254.43,115.56c-28.673,0-52,23.332-52,52.01c0,28.662,23.327,51.98,52,51.98    c28.662,0,51.98-23.318,51.98-51.98C306.41,138.891,283.092,115.56,254.43,115.56z"/></g></g><g id="Layer_1"/></svg>